<mxfile host="app.diagrams.net" agent="Mozilla/5.0 (Windows NT 10.0; Win64; x64) AppleWebKit/537.36 (KHTML, like Gecko) Chrome/130.0.0.0 Safari/537.36" version="24.8.3">
  <diagram name="Página-1" id="rCG3eZJyJU8VCeqgCgNy">
    <mxGraphModel dx="2735" dy="1767" grid="1" gridSize="10" guides="1" tooltips="1" connect="1" arrows="1" fold="1" page="1" pageScale="1" pageWidth="827" pageHeight="583" math="0" shadow="0">
      <root>
        <mxCell id="0" />
        <mxCell id="1" parent="0" />
        <mxCell id="12" value="Banco de dados" style="swimlane;fontStyle=1;align=center;verticalAlign=top;childLayout=stackLayout;horizontal=1;startSize=27.428571428571427;horizontalStack=0;resizeParent=1;resizeParentMax=0;resizeLast=0;collapsible=0;marginBottom=0;" parent="1" vertex="1">
          <mxGeometry x="1420" y="283" width="155" height="299.99857142857144" as="geometry" />
        </mxCell>
        <mxCell id="15" style="line;strokeWidth=1;fillColor=none;align=left;verticalAlign=middle;spacingTop=-1;spacingLeft=3;spacingRight=3;rotatable=0;labelPosition=right;points=[];portConstraint=eastwest;strokeColor=inherit;" parent="12" vertex="1">
          <mxGeometry y="27.428571428571427" width="155" height="12.57" as="geometry" />
        </mxCell>
        <mxCell id="4yD3N3-tQXwb2mGsDQmI-117" value="Cria funcionário&lt;div&gt;Edita funcionário&lt;/div&gt;&lt;div&gt;Atualiza funcionário&lt;/div&gt;&lt;div&gt;Deleta funcionário&lt;/div&gt;&lt;div&gt;Busca funcionário&lt;/div&gt;&lt;div&gt;Adicionar produto&lt;/div&gt;&lt;div&gt;Edita produto&lt;/div&gt;&lt;div&gt;Atualiza produto&lt;/div&gt;&lt;div&gt;Deleta produto&lt;/div&gt;&lt;div&gt;Busca produto&lt;/div&gt;&lt;div&gt;Filtra produtos&lt;/div&gt;&lt;div&gt;Registrar venda&lt;/div&gt;&lt;div&gt;Atualizar venda&lt;/div&gt;&lt;div&gt;Editar venda&lt;/div&gt;&lt;div&gt;Apagar venda&lt;/div&gt;&lt;div&gt;Listar vendas&lt;/div&gt;&lt;div&gt;Gerar relatórios&lt;/div&gt;" style="text;strokeColor=none;fillColor=none;align=left;verticalAlign=top;spacingLeft=4;spacingRight=4;overflow=hidden;rotatable=0;points=[[0,0.5],[1,0.5]];portConstraint=eastwest;whiteSpace=wrap;html=1;" parent="12" vertex="1">
          <mxGeometry y="39.998571428571424" width="155" height="260" as="geometry" />
        </mxCell>
        <mxCell id="4yD3N3-tQXwb2mGsDQmI-32" value="User Admin" style="swimlane;fontStyle=1;align=center;verticalAlign=top;childLayout=stackLayout;horizontal=1;startSize=27.428571428571427;horizontalStack=0;resizeParent=1;resizeParentMax=0;resizeLast=0;collapsible=0;marginBottom=0;" parent="1" vertex="1">
          <mxGeometry x="710" y="-130" width="155" height="122.42857142857143" as="geometry" />
        </mxCell>
        <mxCell id="4yD3N3-tQXwb2mGsDQmI-33" value="Id do admin" style="text;strokeColor=none;fillColor=none;align=left;verticalAlign=top;spacingLeft=4;spacingRight=4;overflow=hidden;rotatable=0;points=[[0,0.5],[1,0.5]];portConstraint=eastwest;" parent="4yD3N3-tQXwb2mGsDQmI-32" vertex="1">
          <mxGeometry y="27.428571428571427" width="155" height="27" as="geometry" />
        </mxCell>
        <mxCell id="4yD3N3-tQXwb2mGsDQmI-34" value="Nome de usuário" style="text;strokeColor=none;fillColor=none;align=left;verticalAlign=top;spacingLeft=4;spacingRight=4;overflow=hidden;rotatable=0;points=[[0,0.5],[1,0.5]];portConstraint=eastwest;" parent="4yD3N3-tQXwb2mGsDQmI-32" vertex="1">
          <mxGeometry y="54.42857142857143" width="155" height="27" as="geometry" />
        </mxCell>
        <mxCell id="4yD3N3-tQXwb2mGsDQmI-65" value="Senha" style="text;strokeColor=none;fillColor=none;align=left;verticalAlign=top;spacingLeft=4;spacingRight=4;overflow=hidden;rotatable=0;points=[[0,0.5],[1,0.5]];portConstraint=eastwest;" parent="4yD3N3-tQXwb2mGsDQmI-32" vertex="1">
          <mxGeometry y="81.42857142857143" width="155" height="27" as="geometry" />
        </mxCell>
        <mxCell id="4yD3N3-tQXwb2mGsDQmI-35" style="line;strokeWidth=1;fillColor=none;align=left;verticalAlign=middle;spacingTop=-1;spacingLeft=3;spacingRight=3;rotatable=0;labelPosition=right;points=[];portConstraint=eastwest;strokeColor=inherit;" parent="4yD3N3-tQXwb2mGsDQmI-32" vertex="1">
          <mxGeometry y="108.42857142857143" width="155" height="14" as="geometry" />
        </mxCell>
        <mxCell id="4yD3N3-tQXwb2mGsDQmI-36" value="Relatórios" style="swimlane;fontStyle=1;align=center;verticalAlign=top;childLayout=stackLayout;horizontal=1;startSize=27.428571428571427;horizontalStack=0;resizeParent=1;resizeParentMax=0;resizeLast=0;collapsible=0;marginBottom=0;" parent="1" vertex="1">
          <mxGeometry x="722.5" y="800" width="155" height="95.42857142857143" as="geometry" />
        </mxCell>
        <mxCell id="4yD3N3-tQXwb2mGsDQmI-37" value="Id do relatorio" style="text;strokeColor=none;fillColor=none;align=left;verticalAlign=top;spacingLeft=4;spacingRight=4;overflow=hidden;rotatable=0;points=[[0,0.5],[1,0.5]];portConstraint=eastwest;" parent="4yD3N3-tQXwb2mGsDQmI-36" vertex="1">
          <mxGeometry y="27.428571428571427" width="155" height="27" as="geometry" />
        </mxCell>
        <mxCell id="4yD3N3-tQXwb2mGsDQmI-38" value="Tipo de relatório" style="text;strokeColor=none;fillColor=none;align=left;verticalAlign=top;spacingLeft=4;spacingRight=4;overflow=hidden;rotatable=0;points=[[0,0.5],[1,0.5]];portConstraint=eastwest;" parent="4yD3N3-tQXwb2mGsDQmI-36" vertex="1">
          <mxGeometry y="54.42857142857143" width="155" height="27" as="geometry" />
        </mxCell>
        <mxCell id="4yD3N3-tQXwb2mGsDQmI-39" style="line;strokeWidth=1;fillColor=none;align=left;verticalAlign=middle;spacingTop=-1;spacingLeft=3;spacingRight=3;rotatable=0;labelPosition=right;points=[];portConstraint=eastwest;strokeColor=inherit;" parent="4yD3N3-tQXwb2mGsDQmI-36" vertex="1">
          <mxGeometry y="81.42857142857143" width="155" height="14" as="geometry" />
        </mxCell>
        <mxCell id="4yD3N3-tQXwb2mGsDQmI-40" value="Vendas diárias" style="swimlane;fontStyle=1;align=center;verticalAlign=top;childLayout=stackLayout;horizontal=1;startSize=27.428571428571427;horizontalStack=0;resizeParent=1;resizeParentMax=0;resizeLast=0;collapsible=0;marginBottom=0;" parent="1" vertex="1">
          <mxGeometry x="710" y="180" width="155" height="176.42857142857144" as="geometry" />
        </mxCell>
        <mxCell id="4yD3N3-tQXwb2mGsDQmI-41" value="Id da venda" style="text;strokeColor=none;fillColor=none;align=left;verticalAlign=top;spacingLeft=4;spacingRight=4;overflow=hidden;rotatable=0;points=[[0,0.5],[1,0.5]];portConstraint=eastwest;" parent="4yD3N3-tQXwb2mGsDQmI-40" vertex="1">
          <mxGeometry y="27.428571428571427" width="155" height="27" as="geometry" />
        </mxCell>
        <mxCell id="4yD3N3-tQXwb2mGsDQmI-42" value="Id do Funcionário" style="text;strokeColor=none;fillColor=none;align=left;verticalAlign=top;spacingLeft=4;spacingRight=4;overflow=hidden;rotatable=0;points=[[0,0.5],[1,0.5]];portConstraint=eastwest;" parent="4yD3N3-tQXwb2mGsDQmI-40" vertex="1">
          <mxGeometry y="54.42857142857143" width="155" height="27" as="geometry" />
        </mxCell>
        <mxCell id="4yD3N3-tQXwb2mGsDQmI-79" value="Tipo de comprador" style="text;strokeColor=none;fillColor=none;align=left;verticalAlign=top;spacingLeft=4;spacingRight=4;overflow=hidden;rotatable=0;points=[[0,0.5],[1,0.5]];portConstraint=eastwest;" parent="4yD3N3-tQXwb2mGsDQmI-40" vertex="1">
          <mxGeometry y="81.42857142857143" width="155" height="27" as="geometry" />
        </mxCell>
        <mxCell id="4yD3N3-tQXwb2mGsDQmI-80" value="Forma de pagamento" style="text;strokeColor=none;fillColor=none;align=left;verticalAlign=top;spacingLeft=4;spacingRight=4;overflow=hidden;rotatable=0;points=[[0,0.5],[1,0.5]];portConstraint=eastwest;" parent="4yD3N3-tQXwb2mGsDQmI-40" vertex="1">
          <mxGeometry y="108.42857142857143" width="155" height="27" as="geometry" />
        </mxCell>
        <mxCell id="4yD3N3-tQXwb2mGsDQmI-81" value="Data" style="text;strokeColor=none;fillColor=none;align=left;verticalAlign=top;spacingLeft=4;spacingRight=4;overflow=hidden;rotatable=0;points=[[0,0.5],[1,0.5]];portConstraint=eastwest;" parent="4yD3N3-tQXwb2mGsDQmI-40" vertex="1">
          <mxGeometry y="135.42857142857144" width="155" height="27" as="geometry" />
        </mxCell>
        <mxCell id="4yD3N3-tQXwb2mGsDQmI-43" style="line;strokeWidth=1;fillColor=none;align=left;verticalAlign=middle;spacingTop=-1;spacingLeft=3;spacingRight=3;rotatable=0;labelPosition=right;points=[];portConstraint=eastwest;strokeColor=inherit;" parent="4yD3N3-tQXwb2mGsDQmI-40" vertex="1">
          <mxGeometry y="162.42857142857144" width="155" height="14" as="geometry" />
        </mxCell>
        <mxCell id="4yD3N3-tQXwb2mGsDQmI-56" value="Notificações" style="swimlane;fontStyle=1;align=center;verticalAlign=top;childLayout=stackLayout;horizontal=1;startSize=27.428571428571427;horizontalStack=0;resizeParent=1;resizeParentMax=0;resizeLast=0;collapsible=0;marginBottom=0;" parent="1" vertex="1">
          <mxGeometry x="710" y="30" width="155" height="122.42857142857143" as="geometry" />
        </mxCell>
        <mxCell id="4yD3N3-tQXwb2mGsDQmI-57" value="Id da notificação" style="text;strokeColor=none;fillColor=none;align=left;verticalAlign=top;spacingLeft=4;spacingRight=4;overflow=hidden;rotatable=0;points=[[0,0.5],[1,0.5]];portConstraint=eastwest;" parent="4yD3N3-tQXwb2mGsDQmI-56" vertex="1">
          <mxGeometry y="27.428571428571427" width="155" height="27" as="geometry" />
        </mxCell>
        <mxCell id="WyFJ2QE-moBdqezIPYEU-15" value="Id do produto" style="text;strokeColor=none;fillColor=none;align=left;verticalAlign=top;spacingLeft=4;spacingRight=4;overflow=hidden;rotatable=0;points=[[0,0.5],[1,0.5]];portConstraint=eastwest;" parent="4yD3N3-tQXwb2mGsDQmI-56" vertex="1">
          <mxGeometry y="54.42857142857143" width="155" height="27" as="geometry" />
        </mxCell>
        <mxCell id="4yD3N3-tQXwb2mGsDQmI-58" value="Mensagem" style="text;strokeColor=none;fillColor=none;align=left;verticalAlign=top;spacingLeft=4;spacingRight=4;overflow=hidden;rotatable=0;points=[[0,0.5],[1,0.5]];portConstraint=eastwest;" parent="4yD3N3-tQXwb2mGsDQmI-56" vertex="1">
          <mxGeometry y="81.42857142857143" width="155" height="27" as="geometry" />
        </mxCell>
        <mxCell id="4yD3N3-tQXwb2mGsDQmI-59" style="line;strokeWidth=1;fillColor=none;align=left;verticalAlign=middle;spacingTop=-1;spacingLeft=3;spacingRight=3;rotatable=0;labelPosition=right;points=[];portConstraint=eastwest;strokeColor=inherit;" parent="4yD3N3-tQXwb2mGsDQmI-56" vertex="1">
          <mxGeometry y="108.42857142857143" width="155" height="14" as="geometry" />
        </mxCell>
        <mxCell id="4yD3N3-tQXwb2mGsDQmI-60" value="Produtos" style="swimlane;fontStyle=1;align=center;verticalAlign=top;childLayout=stackLayout;horizontal=1;startSize=27.428571428571427;horizontalStack=0;resizeParent=1;resizeParentMax=0;resizeLast=0;collapsible=0;marginBottom=0;" parent="1" vertex="1">
          <mxGeometry x="710" y="400" width="155" height="176.42857142857144" as="geometry" />
        </mxCell>
        <mxCell id="4yD3N3-tQXwb2mGsDQmI-61" value="Id do produto" style="text;strokeColor=none;fillColor=none;align=left;verticalAlign=top;spacingLeft=4;spacingRight=4;overflow=hidden;rotatable=0;points=[[0,0.5],[1,0.5]];portConstraint=eastwest;" parent="4yD3N3-tQXwb2mGsDQmI-60" vertex="1">
          <mxGeometry y="27.428571428571427" width="155" height="27" as="geometry" />
        </mxCell>
        <mxCell id="4yD3N3-tQXwb2mGsDQmI-62" value="Nome" style="text;strokeColor=none;fillColor=none;align=left;verticalAlign=top;spacingLeft=4;spacingRight=4;overflow=hidden;rotatable=0;points=[[0,0.5],[1,0.5]];portConstraint=eastwest;" parent="4yD3N3-tQXwb2mGsDQmI-60" vertex="1">
          <mxGeometry y="54.42857142857143" width="155" height="27" as="geometry" />
        </mxCell>
        <mxCell id="4yD3N3-tQXwb2mGsDQmI-71" value="Categoria" style="text;strokeColor=none;fillColor=none;align=left;verticalAlign=top;spacingLeft=4;spacingRight=4;overflow=hidden;rotatable=0;points=[[0,0.5],[1,0.5]];portConstraint=eastwest;" parent="4yD3N3-tQXwb2mGsDQmI-60" vertex="1">
          <mxGeometry y="81.42857142857143" width="155" height="27" as="geometry" />
        </mxCell>
        <mxCell id="4yD3N3-tQXwb2mGsDQmI-72" value="Preço" style="text;strokeColor=none;fillColor=none;align=left;verticalAlign=top;spacingLeft=4;spacingRight=4;overflow=hidden;rotatable=0;points=[[0,0.5],[1,0.5]];portConstraint=eastwest;" parent="4yD3N3-tQXwb2mGsDQmI-60" vertex="1">
          <mxGeometry y="108.42857142857143" width="155" height="27" as="geometry" />
        </mxCell>
        <mxCell id="4yD3N3-tQXwb2mGsDQmI-73" value="Quantidade" style="text;strokeColor=none;fillColor=none;align=left;verticalAlign=top;spacingLeft=4;spacingRight=4;overflow=hidden;rotatable=0;points=[[0,0.5],[1,0.5]];portConstraint=eastwest;" parent="4yD3N3-tQXwb2mGsDQmI-60" vertex="1">
          <mxGeometry y="135.42857142857144" width="155" height="27" as="geometry" />
        </mxCell>
        <mxCell id="4yD3N3-tQXwb2mGsDQmI-63" style="line;strokeWidth=1;fillColor=none;align=left;verticalAlign=middle;spacingTop=-1;spacingLeft=3;spacingRight=3;rotatable=0;labelPosition=right;points=[];portConstraint=eastwest;strokeColor=inherit;" parent="4yD3N3-tQXwb2mGsDQmI-60" vertex="1">
          <mxGeometry y="162.42857142857144" width="155" height="14" as="geometry" />
        </mxCell>
        <mxCell id="4yD3N3-tQXwb2mGsDQmI-66" value="Interface" style="swimlane;fontStyle=1;align=center;verticalAlign=top;childLayout=stackLayout;horizontal=1;startSize=27.428571428571427;horizontalStack=0;resizeParent=1;resizeParentMax=0;resizeLast=0;collapsible=0;marginBottom=0;" parent="1" vertex="1">
          <mxGeometry x="-70" y="260" width="155" height="99.99857142857142" as="geometry" />
        </mxCell>
        <mxCell id="4yD3N3-tQXwb2mGsDQmI-67" value="Menu Inicial" style="text;strokeColor=none;fillColor=none;align=left;verticalAlign=top;spacingLeft=4;spacingRight=4;overflow=hidden;rotatable=0;points=[[0,0.5],[1,0.5]];portConstraint=eastwest;" parent="4yD3N3-tQXwb2mGsDQmI-66" vertex="1">
          <mxGeometry y="27.428571428571427" width="155" height="32.57" as="geometry" />
        </mxCell>
        <mxCell id="Nw_w9vWTFQ0vnzreLBHr-17" value="Menu de login" style="text;strokeColor=none;fillColor=none;align=left;verticalAlign=top;spacingLeft=4;spacingRight=4;overflow=hidden;rotatable=0;points=[[0,0.5],[1,0.5]];portConstraint=eastwest;" parent="4yD3N3-tQXwb2mGsDQmI-66" vertex="1">
          <mxGeometry y="59.998571428571424" width="155" height="30" as="geometry" />
        </mxCell>
        <mxCell id="4yD3N3-tQXwb2mGsDQmI-69" style="line;strokeWidth=1;fillColor=none;align=left;verticalAlign=middle;spacingTop=-1;spacingLeft=3;spacingRight=3;rotatable=0;labelPosition=right;points=[];portConstraint=eastwest;strokeColor=inherit;" parent="4yD3N3-tQXwb2mGsDQmI-66" vertex="1">
          <mxGeometry y="89.99857142857142" width="155" height="10" as="geometry" />
        </mxCell>
        <mxCell id="4yD3N3-tQXwb2mGsDQmI-84" value="&lt;h1&gt;Modelo conceitual&lt;/h1&gt;" style="text;html=1;align=center;verticalAlign=middle;resizable=0;points=[];autosize=1;fillColor=#f5f5f5;fontColor=#333333;strokeColor=#666666;rounded=1;" parent="1" vertex="1">
          <mxGeometry x="-40" y="-1.5700000000000003" width="230" height="70" as="geometry" />
        </mxCell>
        <mxCell id="Nw_w9vWTFQ0vnzreLBHr-22" value="Controlador de Funcionários" style="swimlane;fontStyle=1;align=center;verticalAlign=top;childLayout=stackLayout;horizontal=1;startSize=27.428571428571427;horizontalStack=0;resizeParent=1;resizeParentMax=0;resizeLast=0;collapsible=0;marginBottom=0;" parent="1" vertex="1">
          <mxGeometry x="280" y="490" width="180" height="122.42857142857143" as="geometry" />
        </mxCell>
        <mxCell id="Nw_w9vWTFQ0vnzreLBHr-26" style="line;strokeWidth=1;fillColor=none;align=left;verticalAlign=middle;spacingTop=-1;spacingLeft=3;spacingRight=3;rotatable=0;labelPosition=right;points=[];portConstraint=eastwest;strokeColor=inherit;" parent="Nw_w9vWTFQ0vnzreLBHr-22" vertex="1">
          <mxGeometry y="27.428571428571427" width="180" height="14" as="geometry" />
        </mxCell>
        <mxCell id="KlSsxM7Or0WWCpnzEeFf-23" value="Id do funcionario" style="text;strokeColor=none;fillColor=none;align=left;verticalAlign=top;spacingLeft=4;spacingRight=4;overflow=hidden;rotatable=0;points=[[0,0.5],[1,0.5]];portConstraint=eastwest;" parent="Nw_w9vWTFQ0vnzreLBHr-22" vertex="1">
          <mxGeometry y="41.42857142857143" width="180" height="27" as="geometry" />
        </mxCell>
        <mxCell id="KlSsxM7Or0WWCpnzEeFf-24" value="Nome" style="text;strokeColor=none;fillColor=none;align=left;verticalAlign=top;spacingLeft=4;spacingRight=4;overflow=hidden;rotatable=0;points=[[0,0.5],[1,0.5]];portConstraint=eastwest;" parent="Nw_w9vWTFQ0vnzreLBHr-22" vertex="1">
          <mxGeometry y="68.42857142857143" width="180" height="27" as="geometry" />
        </mxCell>
        <mxCell id="KlSsxM7Or0WWCpnzEeFf-25" value="Cargo" style="text;strokeColor=none;fillColor=none;align=left;verticalAlign=top;spacingLeft=4;spacingRight=4;overflow=hidden;rotatable=0;points=[[0,0.5],[1,0.5]];portConstraint=eastwest;" parent="Nw_w9vWTFQ0vnzreLBHr-22" vertex="1">
          <mxGeometry y="95.42857142857143" width="180" height="27" as="geometry" />
        </mxCell>
        <mxCell id="jJdK9kgYPfyGHqjLfK-a-15" value="Funcionários" style="swimlane;fontStyle=1;align=center;verticalAlign=top;childLayout=stackLayout;horizontal=1;startSize=27.428571428571427;horizontalStack=0;resizeParent=1;resizeParentMax=0;resizeLast=0;collapsible=0;marginBottom=0;" parent="1" vertex="1">
          <mxGeometry x="710" y="620" width="180" height="122.42857142857143" as="geometry" />
        </mxCell>
        <mxCell id="jJdK9kgYPfyGHqjLfK-a-16" value="Cadastrar Funcionário" style="text;strokeColor=none;fillColor=none;align=left;verticalAlign=top;spacingLeft=4;spacingRight=4;overflow=hidden;rotatable=0;points=[[0,0.5],[1,0.5]];portConstraint=eastwest;" parent="jJdK9kgYPfyGHqjLfK-a-15" vertex="1">
          <mxGeometry y="27.428571428571427" width="180" height="27" as="geometry" />
        </mxCell>
        <mxCell id="jJdK9kgYPfyGHqjLfK-a-17" value="Excluir Funcionário" style="text;strokeColor=none;fillColor=none;align=left;verticalAlign=top;spacingLeft=4;spacingRight=4;overflow=hidden;rotatable=0;points=[[0,0.5],[1,0.5]];portConstraint=eastwest;" parent="jJdK9kgYPfyGHqjLfK-a-15" vertex="1">
          <mxGeometry y="54.42857142857143" width="180" height="27" as="geometry" />
        </mxCell>
        <mxCell id="jJdK9kgYPfyGHqjLfK-a-18" value="Atualizar Funcionário" style="text;strokeColor=none;fillColor=none;align=left;verticalAlign=top;spacingLeft=4;spacingRight=4;overflow=hidden;rotatable=0;points=[[0,0.5],[1,0.5]];portConstraint=eastwest;" parent="jJdK9kgYPfyGHqjLfK-a-15" vertex="1">
          <mxGeometry y="81.42857142857143" width="180" height="27" as="geometry" />
        </mxCell>
        <mxCell id="jJdK9kgYPfyGHqjLfK-a-20" style="line;strokeWidth=1;fillColor=none;align=left;verticalAlign=middle;spacingTop=-1;spacingLeft=3;spacingRight=3;rotatable=0;labelPosition=right;points=[];portConstraint=eastwest;strokeColor=inherit;" parent="jJdK9kgYPfyGHqjLfK-a-15" vertex="1">
          <mxGeometry y="108.42857142857143" width="180" height="14" as="geometry" />
        </mxCell>
        <mxCell id="zHELxeo6hIR-I9ZXr5rR-37" value="" style="endArrow=classic;html=1;rounded=0;entryX=1;entryY=0.5;entryDx=0;entryDy=0;" parent="1" source="4yD3N3-tQXwb2mGsDQmI-117" target="WyFJ2QE-moBdqezIPYEU-15" edge="1">
          <mxGeometry width="50" height="50" relative="1" as="geometry">
            <mxPoint x="1060" y="420" as="sourcePoint" />
            <mxPoint x="930" y="190" as="targetPoint" />
          </mxGeometry>
        </mxCell>
        <mxCell id="zHELxeo6hIR-I9ZXr5rR-38" value="" style="endArrow=classic;html=1;rounded=0;exitX=-0.001;exitY=0.335;exitDx=0;exitDy=0;exitPerimeter=0;entryX=1;entryY=0.5;entryDx=0;entryDy=0;" parent="1" source="4yD3N3-tQXwb2mGsDQmI-117" target="4yD3N3-tQXwb2mGsDQmI-34" edge="1">
          <mxGeometry width="50" height="50" relative="1" as="geometry">
            <mxPoint x="1260" y="398" as="sourcePoint" />
            <mxPoint x="1310" y="200" as="targetPoint" />
            <Array as="points" />
          </mxGeometry>
        </mxCell>
        <mxCell id="zHELxeo6hIR-I9ZXr5rR-41" value="" style="endArrow=classic;html=1;rounded=0;exitX=0;exitY=0.5;exitDx=0;exitDy=0;entryX=1;entryY=0.5;entryDx=0;entryDy=0;" parent="1" source="4yD3N3-tQXwb2mGsDQmI-117" edge="1" target="jJdK9kgYPfyGHqjLfK-a-17">
          <mxGeometry width="50" height="50" relative="1" as="geometry">
            <mxPoint x="1080" y="700" as="sourcePoint" />
            <mxPoint x="1150" y="890" as="targetPoint" />
          </mxGeometry>
        </mxCell>
        <mxCell id="zHELxeo6hIR-I9ZXr5rR-43" value="" style="endArrow=classic;html=1;rounded=0;entryX=0;entryY=0.5;entryDx=0;entryDy=0;" parent="1" edge="1" target="jJdK9kgYPfyGHqjLfK-a-17">
          <mxGeometry width="50" height="50" relative="1" as="geometry">
            <mxPoint x="460" y="560" as="sourcePoint" />
            <mxPoint x="970" y="900" as="targetPoint" />
          </mxGeometry>
        </mxCell>
        <mxCell id="zHELxeo6hIR-I9ZXr5rR-46" value="" style="endArrow=classic;html=1;rounded=0;exitX=1;exitY=0.5;exitDx=0;exitDy=0;entryX=-0.029;entryY=1.083;entryDx=0;entryDy=0;entryPerimeter=0;" parent="1" source="I3HKspk7miAercQZ1zuE-27" target="4yD3N3-tQXwb2mGsDQmI-37" edge="1">
          <mxGeometry width="50" height="50" relative="1" as="geometry">
            <mxPoint x="445" y="740.9285714285716" as="sourcePoint" />
            <mxPoint x="530" y="750" as="targetPoint" />
          </mxGeometry>
        </mxCell>
        <mxCell id="zHELxeo6hIR-I9ZXr5rR-47" value="" style="endArrow=classic;html=1;rounded=0;exitX=0;exitY=0.5;exitDx=0;exitDy=0;entryX=1;entryY=0.5;entryDx=0;entryDy=0;" parent="1" source="4yD3N3-tQXwb2mGsDQmI-117" target="4yD3N3-tQXwb2mGsDQmI-38" edge="1">
          <mxGeometry width="50" height="50" relative="1" as="geometry">
            <mxPoint x="870" y="760" as="sourcePoint" />
            <mxPoint x="970" y="760" as="targetPoint" />
          </mxGeometry>
        </mxCell>
        <mxCell id="zHELxeo6hIR-I9ZXr5rR-48" value="" style="endArrow=classic;html=1;rounded=0;exitX=1.006;exitY=0.947;exitDx=0;exitDy=0;entryX=-0.016;entryY=-0.183;entryDx=0;entryDy=0;entryPerimeter=0;exitPerimeter=0;" parent="1" source="zHELxeo6hIR-I9ZXr5rR-25" target="4yD3N3-tQXwb2mGsDQmI-73" edge="1">
          <mxGeometry width="50" height="50" relative="1" as="geometry">
            <mxPoint x="470" y="200.92857142857133" as="sourcePoint" />
            <mxPoint x="610" y="500" as="targetPoint" />
          </mxGeometry>
        </mxCell>
        <mxCell id="zHELxeo6hIR-I9ZXr5rR-49" value="" style="endArrow=classic;html=1;rounded=0;entryX=1;entryY=0.5;entryDx=0;entryDy=0;exitX=0;exitY=0.5;exitDx=0;exitDy=0;" parent="1" source="4yD3N3-tQXwb2mGsDQmI-117" target="4yD3N3-tQXwb2mGsDQmI-73" edge="1">
          <mxGeometry width="50" height="50" relative="1" as="geometry">
            <mxPoint x="1160" y="510" as="sourcePoint" />
            <mxPoint x="1210" y="460" as="targetPoint" />
          </mxGeometry>
        </mxCell>
        <mxCell id="zHELxeo6hIR-I9ZXr5rR-50" value="" style="endArrow=classic;html=1;rounded=0;entryX=0;entryY=0.5;entryDx=0;entryDy=0;exitX=0.972;exitY=0.7;exitDx=0;exitDy=0;exitPerimeter=0;" parent="1" source="I3HKspk7miAercQZ1zuE-26" target="4yD3N3-tQXwb2mGsDQmI-80" edge="1">
          <mxGeometry width="50" height="50" relative="1" as="geometry">
            <mxPoint x="440" y="260" as="sourcePoint" />
            <mxPoint x="680" y="350" as="targetPoint" />
            <Array as="points" />
          </mxGeometry>
        </mxCell>
        <mxCell id="zHELxeo6hIR-I9ZXr5rR-51" value="" style="endArrow=classic;html=1;rounded=0;exitX=0;exitY=0.5;exitDx=0;exitDy=0;entryX=1;entryY=0.5;entryDx=0;entryDy=0;" parent="1" source="4yD3N3-tQXwb2mGsDQmI-117" target="4yD3N3-tQXwb2mGsDQmI-81" edge="1">
          <mxGeometry width="50" height="50" relative="1" as="geometry">
            <mxPoint x="1100" y="340" as="sourcePoint" />
            <mxPoint x="1150" y="290" as="targetPoint" />
          </mxGeometry>
        </mxCell>
        <mxCell id="aSdEXYb8_tZVf0fWAt2X-15" value="mais um conceito para a mensagem&lt;div&gt;&amp;nbsp;de notificação, com a logica do alerta e outro&lt;/div&gt;&lt;div&gt;com a exibição das notificações, tendo dependencia&lt;/div&gt;&lt;div&gt;de que se a mensagem for exibida e marcada como&lt;/div&gt;&lt;div&gt;lida, irá retornar (algo) para a lógica, dizendo&lt;/div&gt;&lt;div&gt;&lt;span style=&quot;background-color: initial;&quot;&gt;o usuario sabe sobre a falta do tal produto,&lt;/span&gt;&lt;/div&gt;&lt;div&gt;&lt;span style=&quot;background-color: initial;&quot;&gt;&amp;nbsp;assim, retirando do sistema o aviso.&lt;/span&gt;&lt;/div&gt;&lt;div&gt;&lt;br&gt;&lt;/div&gt;" style="text;html=1;align=center;verticalAlign=middle;resizable=0;points=[];autosize=1;strokeColor=none;fillColor=none;" parent="1" vertex="1">
          <mxGeometry x="1380" y="102.43" width="300" height="130" as="geometry" />
        </mxCell>
        <mxCell id="I3HKspk7miAercQZ1zuE-15" value="Controlador de Produtos" style="swimlane;fontStyle=1;align=center;verticalAlign=top;childLayout=stackLayout;horizontal=1;startSize=27.428571428571427;horizontalStack=0;resizeParent=1;resizeParentMax=0;resizeLast=0;collapsible=0;marginBottom=0;" parent="1" vertex="1">
          <mxGeometry x="277.5" y="330" width="180" height="122.42857142857143" as="geometry" />
        </mxCell>
        <mxCell id="I3HKspk7miAercQZ1zuE-20" style="line;strokeWidth=1;fillColor=none;align=left;verticalAlign=middle;spacingTop=-1;spacingLeft=3;spacingRight=3;rotatable=0;labelPosition=right;points=[];portConstraint=eastwest;strokeColor=inherit;" parent="I3HKspk7miAercQZ1zuE-15" vertex="1">
          <mxGeometry y="27.428571428571427" width="180" height="14" as="geometry" />
        </mxCell>
        <mxCell id="zHELxeo6hIR-I9ZXr5rR-25" value="Cadastrar Produto" style="text;strokeColor=none;fillColor=none;align=left;verticalAlign=top;spacingLeft=4;spacingRight=4;overflow=hidden;rotatable=0;points=[[0,0.5],[1,0.5]];portConstraint=eastwest;" parent="I3HKspk7miAercQZ1zuE-15" vertex="1">
          <mxGeometry y="41.42857142857143" width="180" height="27" as="geometry" />
        </mxCell>
        <mxCell id="zHELxeo6hIR-I9ZXr5rR-26" value="Excluir Produto" style="text;strokeColor=none;fillColor=none;align=left;verticalAlign=top;spacingLeft=4;spacingRight=4;overflow=hidden;rotatable=0;points=[[0,0.5],[1,0.5]];portConstraint=eastwest;" parent="I3HKspk7miAercQZ1zuE-15" vertex="1">
          <mxGeometry y="68.42857142857143" width="180" height="27" as="geometry" />
        </mxCell>
        <mxCell id="zHELxeo6hIR-I9ZXr5rR-27" value="Atualizar Produto" style="text;strokeColor=none;fillColor=none;align=left;verticalAlign=top;spacingLeft=4;spacingRight=4;overflow=hidden;rotatable=0;points=[[0,0.5],[1,0.5]];portConstraint=eastwest;" parent="I3HKspk7miAercQZ1zuE-15" vertex="1">
          <mxGeometry y="95.42857142857143" width="180" height="27" as="geometry" />
        </mxCell>
        <mxCell id="I3HKspk7miAercQZ1zuE-21" value="Controlador de Vendas" style="swimlane;fontStyle=1;align=center;verticalAlign=top;childLayout=stackLayout;horizontal=1;startSize=27.428571428571427;horizontalStack=0;resizeParent=1;resizeParentMax=0;resizeLast=0;collapsible=0;marginBottom=0;" parent="1" vertex="1">
          <mxGeometry x="282.5" y="214.57" width="155" height="68.42857142857143" as="geometry" />
        </mxCell>
        <mxCell id="I3HKspk7miAercQZ1zuE-26" style="line;strokeWidth=1;fillColor=none;align=left;verticalAlign=middle;spacingTop=-1;spacingLeft=3;spacingRight=3;rotatable=0;labelPosition=right;points=[];portConstraint=eastwest;strokeColor=inherit;" parent="I3HKspk7miAercQZ1zuE-21" vertex="1">
          <mxGeometry y="27.428571428571427" width="155" height="14" as="geometry" />
        </mxCell>
        <mxCell id="zHELxeo6hIR-I9ZXr5rR-31" value="Registrar Venda" style="text;strokeColor=none;fillColor=none;align=left;verticalAlign=top;spacingLeft=4;spacingRight=4;overflow=hidden;rotatable=0;points=[[0,0.5],[1,0.5]];portConstraint=eastwest;" parent="I3HKspk7miAercQZ1zuE-21" vertex="1">
          <mxGeometry y="41.42857142857143" width="155" height="27" as="geometry" />
        </mxCell>
        <mxCell id="I3HKspk7miAercQZ1zuE-27" value="Controlador de Relatórios" style="swimlane;fontStyle=1;align=center;verticalAlign=top;childLayout=stackLayout;horizontal=1;startSize=27.428571428571427;horizontalStack=0;resizeParent=1;resizeParentMax=0;resizeLast=0;collapsible=0;marginBottom=0;" parent="1" vertex="1">
          <mxGeometry x="290" y="650" width="155" height="68.42857142857143" as="geometry" />
        </mxCell>
        <mxCell id="I3HKspk7miAercQZ1zuE-32" style="line;strokeWidth=1;fillColor=none;align=left;verticalAlign=middle;spacingTop=-1;spacingLeft=3;spacingRight=3;rotatable=0;labelPosition=right;points=[];portConstraint=eastwest;strokeColor=inherit;" parent="I3HKspk7miAercQZ1zuE-27" vertex="1">
          <mxGeometry y="27.428571428571427" width="155" height="14" as="geometry" />
        </mxCell>
        <mxCell id="zHELxeo6hIR-I9ZXr5rR-30" value="Gerar Relatório" style="text;strokeColor=none;fillColor=none;align=left;verticalAlign=top;spacingLeft=4;spacingRight=4;overflow=hidden;rotatable=0;points=[[0,0.5],[1,0.5]];portConstraint=eastwest;" parent="I3HKspk7miAercQZ1zuE-27" vertex="1">
          <mxGeometry y="41.42857142857143" width="155" height="27" as="geometry" />
        </mxCell>
        <mxCell id="I3HKspk7miAercQZ1zuE-34" value="" style="whiteSpace=wrap;html=1;aspect=fixed;fillColor=#fff2cc;strokeColor=#d6b656;" parent="1" vertex="1">
          <mxGeometry x="1137.5" y="-250" width="130" height="130" as="geometry" />
        </mxCell>
        <mxCell id="I3HKspk7miAercQZ1zuE-36" value="Em um Diagrama de Classes, nas classes Produto, Vendas diárias, Fncionários e Relatórios, os métodos podem ser somente de maniulação" style="text;strokeColor=none;fillColor=none;align=left;verticalAlign=top;spacingLeft=4;spacingRight=4;overflow=hidden;rotatable=0;points=[[0,0.5],[1,0.5]];portConstraint=eastwest;whiteSpace=wrap;" parent="1" vertex="1">
          <mxGeometry x="1140" y="-250" width="125" height="130" as="geometry" />
        </mxCell>
        <mxCell id="I3HKspk7miAercQZ1zuE-37" value="Controlador de Notificações?" style="swimlane;fontStyle=1;align=center;verticalAlign=top;childLayout=stackLayout;horizontal=1;startSize=27.428571428571427;horizontalStack=0;resizeParent=1;resizeParentMax=0;resizeLast=0;collapsible=0;marginBottom=0;" parent="1" vertex="1">
          <mxGeometry x="277.5" y="90" width="175" height="68.42857142857143" as="geometry" />
        </mxCell>
        <mxCell id="I3HKspk7miAercQZ1zuE-38" style="line;strokeWidth=1;fillColor=none;align=left;verticalAlign=middle;spacingTop=-1;spacingLeft=3;spacingRight=3;rotatable=0;labelPosition=right;points=[];portConstraint=eastwest;strokeColor=inherit;" parent="I3HKspk7miAercQZ1zuE-37" vertex="1">
          <mxGeometry y="27.428571428571427" width="175" height="14" as="geometry" />
        </mxCell>
        <mxCell id="3e7NEioCLkdfD9Th6quC-23" value="Gerenciar Notificação" style="text;strokeColor=none;fillColor=none;align=left;verticalAlign=top;spacingLeft=4;spacingRight=4;overflow=hidden;rotatable=0;points=[[0,0.5],[1,0.5]];portConstraint=eastwest;" vertex="1" parent="I3HKspk7miAercQZ1zuE-37">
          <mxGeometry y="41.42857142857143" width="175" height="27" as="geometry" />
        </mxCell>
        <mxCell id="I3HKspk7miAercQZ1zuE-40" value="Controlador de Users?" style="swimlane;fontStyle=1;align=center;verticalAlign=top;childLayout=stackLayout;horizontal=1;startSize=27.428571428571427;horizontalStack=0;resizeParent=1;resizeParentMax=0;resizeLast=0;collapsible=0;marginBottom=0;" parent="1" vertex="1">
          <mxGeometry x="277.5" width="175" height="68.42857142857143" as="geometry" />
        </mxCell>
        <mxCell id="I3HKspk7miAercQZ1zuE-41" style="line;strokeWidth=1;fillColor=none;align=left;verticalAlign=middle;spacingTop=-1;spacingLeft=3;spacingRight=3;rotatable=0;labelPosition=right;points=[];portConstraint=eastwest;strokeColor=inherit;" parent="I3HKspk7miAercQZ1zuE-40" vertex="1">
          <mxGeometry y="27.428571428571427" width="175" height="14" as="geometry" />
        </mxCell>
        <mxCell id="I3HKspk7miAercQZ1zuE-43" value="Cadastrar Usuário" style="text;strokeColor=none;fillColor=none;align=left;verticalAlign=top;spacingLeft=4;spacingRight=4;overflow=hidden;rotatable=0;points=[[0,0.5],[1,0.5]];portConstraint=eastwest;" parent="I3HKspk7miAercQZ1zuE-40" vertex="1">
          <mxGeometry y="41.42857142857143" width="175" height="27" as="geometry" />
        </mxCell>
        <mxCell id="3e7NEioCLkdfD9Th6quC-15" value="" style="endArrow=classic;html=1;rounded=0;exitX=1;exitY=0.5;exitDx=0;exitDy=0;entryX=0;entryY=0.5;entryDx=0;entryDy=0;" edge="1" parent="1" source="4yD3N3-tQXwb2mGsDQmI-67" target="I3HKspk7miAercQZ1zuE-40">
          <mxGeometry width="50" height="50" relative="1" as="geometry">
            <mxPoint x="120" y="440" as="sourcePoint" />
            <mxPoint x="170" y="390" as="targetPoint" />
          </mxGeometry>
        </mxCell>
        <mxCell id="3e7NEioCLkdfD9Th6quC-16" value="" style="endArrow=classic;html=1;rounded=0;exitX=1;exitY=0.5;exitDx=0;exitDy=0;entryX=-0.009;entryY=-0.032;entryDx=0;entryDy=0;entryPerimeter=0;" edge="1" parent="1" source="4yD3N3-tQXwb2mGsDQmI-67">
          <mxGeometry width="50" height="50" relative="1" as="geometry">
            <mxPoint x="140" y="430" as="sourcePoint" />
            <mxPoint x="275.92499999999995" y="130.56457142857153" as="targetPoint" />
          </mxGeometry>
        </mxCell>
        <mxCell id="3e7NEioCLkdfD9Th6quC-17" value="" style="endArrow=classic;html=1;rounded=0;entryX=-0.01;entryY=0.037;entryDx=0;entryDy=0;entryPerimeter=0;exitX=1;exitY=0.5;exitDx=0;exitDy=0;" edge="1" parent="1" source="4yD3N3-tQXwb2mGsDQmI-67" target="zHELxeo6hIR-I9ZXr5rR-31">
          <mxGeometry width="50" height="50" relative="1" as="geometry">
            <mxPoint x="120" y="430" as="sourcePoint" />
            <mxPoint x="220" y="400" as="targetPoint" />
          </mxGeometry>
        </mxCell>
        <mxCell id="3e7NEioCLkdfD9Th6quC-18" value="" style="endArrow=classic;html=1;rounded=0;exitX=1;exitY=0.5;exitDx=0;exitDy=0;entryX=-0.003;entryY=0.28;entryDx=0;entryDy=0;entryPerimeter=0;" edge="1" parent="1" source="4yD3N3-tQXwb2mGsDQmI-67" target="zHELxeo6hIR-I9ZXr5rR-26">
          <mxGeometry width="50" height="50" relative="1" as="geometry">
            <mxPoint x="180" y="460" as="sourcePoint" />
            <mxPoint x="230" y="410" as="targetPoint" />
          </mxGeometry>
        </mxCell>
        <mxCell id="3e7NEioCLkdfD9Th6quC-19" value="" style="endArrow=classic;html=1;rounded=0;exitX=0.974;exitY=-0.167;exitDx=0;exitDy=0;entryX=-0.017;entryY=0.132;entryDx=0;entryDy=0;entryPerimeter=0;exitPerimeter=0;" edge="1" parent="1" source="Nw_w9vWTFQ0vnzreLBHr-17">
          <mxGeometry width="50" height="50" relative="1" as="geometry">
            <mxPoint x="115.56" y="449.9985714285715" as="sourcePoint" />
            <mxPoint x="277.50000000000006" y="546.9925714285714" as="targetPoint" />
          </mxGeometry>
        </mxCell>
        <mxCell id="3e7NEioCLkdfD9Th6quC-20" value="" style="endArrow=classic;html=1;rounded=0;entryX=-0.013;entryY=0.095;entryDx=0;entryDy=0;entryPerimeter=0;exitX=1;exitY=0.5;exitDx=0;exitDy=0;" edge="1" parent="1" source="Nw_w9vWTFQ0vnzreLBHr-17" target="zHELxeo6hIR-I9ZXr5rR-30">
          <mxGeometry width="50" height="50" relative="1" as="geometry">
            <mxPoint x="120" y="470" as="sourcePoint" />
            <mxPoint x="230" y="590" as="targetPoint" />
          </mxGeometry>
        </mxCell>
        <mxCell id="3e7NEioCLkdfD9Th6quC-21" value="" style="endArrow=classic;html=1;rounded=0;exitX=1.006;exitY=0.162;exitDx=0;exitDy=0;exitPerimeter=0;entryX=0;entryY=0.5;entryDx=0;entryDy=0;" edge="1" parent="1" target="WyFJ2QE-moBdqezIPYEU-15">
          <mxGeometry width="50" height="50" relative="1" as="geometry">
            <mxPoint x="453.54999999999995" y="135.80257142857158" as="sourcePoint" />
            <mxPoint x="620" y="90" as="targetPoint" />
          </mxGeometry>
        </mxCell>
        <mxCell id="3e7NEioCLkdfD9Th6quC-22" value="" style="endArrow=classic;html=1;rounded=0;exitX=1;exitY=0.5;exitDx=0;exitDy=0;entryX=0;entryY=0.5;entryDx=0;entryDy=0;" edge="1" parent="1" source="I3HKspk7miAercQZ1zuE-43" target="4yD3N3-tQXwb2mGsDQmI-34">
          <mxGeometry width="50" height="50" relative="1" as="geometry">
            <mxPoint x="580" y="50" as="sourcePoint" />
            <mxPoint x="630" as="targetPoint" />
          </mxGeometry>
        </mxCell>
      </root>
    </mxGraphModel>
  </diagram>
</mxfile>
